<?xml version="1.0" standalone="no"?>
<!DOCTYPE svg PUBLIC "-//W3C//DTD SVG 1.1//EN" "http://www.w3.org/Graphics/SVG/1.1/DTD/svg11.dtd" >
<svg>
<metadata>
Created by FontForge 20090914 at Thu Feb 23 16:13:27 2012
 By ffonts
Copyright &#194;&#169; 2002  Sharkshock Productions All rights reserved
</metadata>
<defs>
<font id="Padaloma" horiz-adv-x="1105" >
  <font-face 
    font-family="Padaloma"
    font-weight="400"
    font-stretch="normal"
    units-per-em="1000"
    panose-1="0 0 0 0 0 0 0 0 0 0"
    ascent="800"
    descent="-200"
    x-height="638"
    cap-height="812"
    bbox="-13 -236 1568 1007"
    underline-thickness="50"
    underline-position="-75"
    unicode-range="U+0020-U+00AE"
  />
<missing-glyph horiz-adv-x="500" 
 />
    <glyph glyph-name=".notdef" horiz-adv-x="500" 
 />
    <glyph glyph-name=".null" horiz-adv-x="0" 
 />
    <glyph glyph-name="nonmarkingreturn" horiz-adv-x="500" 
 />
    <glyph glyph-name="space" unicode=" " horiz-adv-x="500" 
 />
    <glyph glyph-name="space" unicode="&#xa0;" horiz-adv-x="500" 
 />
    <glyph glyph-name="exclam" unicode="!" horiz-adv-x="479" 
d="M387 342h-295l-1 470h295zM241 278q-69 0 -119 -50q-49 -49 -49 -118q0 -70 49 -119t119 -49t119 49q50 50 50 119t-49 118q-50 50 -120 50z" />
    <glyph glyph-name="quotedbl" unicode="&#x22;" horiz-adv-x="741" 
d="M540 739q-69 0 -119 -50q-49 -49 -49 -118q0 -70 49 -119t119 -49q69 0 118 49q50 50 50 119t-49 118q-50 50 -119 50zM488 349q112 35 167 106q56 72 16 65q-40 -6 -74 -58t-109 -85v-28zM192 733q-68 0 -118 -50q-49 -49 -49 -118q0 -70 49 -119t118 -49q70 0 119 49
q50 50 50 119t-49 118q-50 50 -120 50zM141 343q111 35 166 106q57 72 17 65q-40 -6 -74 -58q-35 -53 -109 -84v-29z" />
    <glyph glyph-name="numbersign" unicode="#" horiz-adv-x="1077" 
d="M647 407h-164l-53 -104h164zM641 718l-88 -179h155l89 179h197l-88 -179h175l-69 -132h-172l-52 -104h177l-69 -132h-174l-89 -179h-198l90 179h-155l-90 -179h-197l89 179h-176l68 132h174l50 104h-176l67 132h177l88 179h197z" />
    <glyph glyph-name="dollar" unicode="$" horiz-adv-x="1070" 
d="M631 0v-66h-194v66h-130q-138 0 -208 39.5t-70 114.5v147h454v-57q0 -31 12.5 -44.5t42.5 -13.5q29 0 42.5 15t13.5 51q0 15 -2.5 25.5t-10.5 19t-23 15t-40 13.5l-308 89q-105 31 -143 66q-38 36 -38 98v80q0 75 70.5 114.5t207.5 39.5h130v67h194v-67h133
q138 0 208 -39.5t70 -114.5v-96h-451v10q0 55 -58 55q-24 0 -38.5 -10t-14.5 -26q0 -8 3 -14t11.5 -12t24 -12t41.5 -14l358 -108q34 -11 57.5 -25t38.5 -34t21.5 -48t6.5 -66v-83q0 -91 -67 -133t-211 -42h-133z" />
    <glyph glyph-name="percent" unicode="%" horiz-adv-x="1614" 
d="M1246 329v-187q0 -34 32 -34q31 0 31 34v187q0 34 -31 34q-32 0 -32 -34zM1142 0q-85 0 -119.5 25.5t-34.5 88.5v255q0 54 36.5 78t117.5 24h265q85 0 123 -24t38 -78v-255q0 -63 -36 -88.5t-125 -25.5h-265zM493 0l414 812h224l-413 -812h-225zM304 671v-188
q0 -34 32 -34q31 0 31 34v188q0 34 -31 34q-32 0 -32 -34zM200 342q-85 0 -120 25.5t-35 87.5v255q0 54 37 78t118 24h263q88 0 125.5 -24t37.5 -78v-255q0 -31 -8.5 -52.5t-27.5 -35t-50 -19.5t-77 -6h-263z" />
    <glyph glyph-name="quotesingle" unicode="'" horiz-adv-x="1614" 
d="M1246 329v-187q0 -34 32 -34q31 0 31 34v187q0 34 -31 34q-32 0 -32 -34zM1142 0q-85 0 -119.5 25.5t-34.5 88.5v255q0 54 36.5 78t117.5 24h265q85 0 123 -24t38 -78v-255q0 -63 -36 -88.5t-125 -25.5h-265zM493 0l414 812h224l-413 -812h-225zM304 671v-188
q0 -34 32 -34q31 0 31 34v188q0 34 -31 34q-32 0 -32 -34zM200 342q-85 0 -120 25.5t-35 87.5v255q0 54 37 78t118 24h263q88 0 125.5 -24t37.5 -78v-255q0 -31 -8.5 -52.5t-27.5 -35t-50 -19.5t-77 -6h-263z" />
    <glyph glyph-name="parenleft" unicode="(" horiz-adv-x="658" 
d="M612 838v-162h-70q-30 0 -48.5 -2.5t-28 -9t-13 -18t-3.5 -29.5v-589q0 -18 3.5 -29.5t13 -18t28 -9t48.5 -2.5h70v-162h-276q-136 0 -206.5 39.5t-70.5 114.5v723q0 75 70.5 114.5t206.5 39.5h276z" />
    <glyph glyph-name="parenright" unicode=")" horiz-adv-x="658" 
d="M46 -194v163h69q31 0 49.5 2.5t28.5 8.5t13 17.5t3 29.5v590q0 18 -3 29.5t-13 17.5t-28.5 8.5t-49.5 2.5h-69v163h276q138 0 207.5 -39.5t69.5 -114.5v-723q0 -75 -70.5 -115t-206.5 -40h-276z" />
    <glyph glyph-name="asterisk" unicode="*" horiz-adv-x="735" 
d="M263 353l-168 87l105 104l-169 39l63 141l171 -40v128h207v-128l169 40l65 -141l-171 -39l105 -104l-167 -87l-105 104z" />
    <glyph glyph-name="plus" unicode="+" horiz-adv-x="1166" 
d="M679 596v-231h314v-133h-314v-232h-192v232h-313v133h313v231h192z" />
    <glyph glyph-name="comma" unicode="," horiz-adv-x="407" 
d="M204 276q-69 0 -119 -50q-48 -50 -48 -118q0 -70 48 -119q49 -49 119 -49t119 49q50 50 50 119t-49 118q-50 50 -120 50zM152 -114q112 35 167 106q56 72 16 65q-39 -6 -73 -58q-35 -53 -110 -84v-29z" />
    <glyph glyph-name="hyphen" unicode="-" horiz-adv-x="560" 
d="M522 432v-213h-483v213h483z" />
    <glyph glyph-name="hyphen" unicode="&#xad;" horiz-adv-x="560" 
d="M522 432v-213h-483v213h483z" />
    <glyph glyph-name="period" unicode="." horiz-adv-x="400" 
d="M204 276q-69 0 -119 -50q-48 -50 -48 -118q0 -70 48 -119q49 -49 119 -49t119 49q50 50 50 119t-49 118q-50 50 -120 50z" />
    <glyph glyph-name="slash" unicode="/" horiz-adv-x="787" 
d="M787 812l-543 -905h-244l552 905h235z" />
    <glyph glyph-name="zero" unicode="0" 
d="M315 -7q-148 0 -210 44q-60 43 -60 152v455q0 91 64.5 133t205.5 42h463q76 0 129.5 -10t87.5 -31t49.5 -54.5t15.5 -79.5v-455q0 -110 -63 -153q-61 -43 -219 -43h-463zM496 575v-338q0 -31 13 -44.5t43 -13.5t43.5 13.5t13.5 44.5v338q0 59 -57 59q-30 0 -43 -14
t-13 -45z" />
    <glyph glyph-name="one" unicode="1" horiz-adv-x="649" 
d="M145 0v519h-94v292l199 1h345v-812h-450z" />
    <glyph glyph-name="two" unicode="2" horiz-adv-x="1095" 
d="M31 0v176l522 339q18 13 28.5 29t10.5 33q0 29 -12 43t-41 14q-26 0 -41.5 -14t-15.5 -36v-49h-451v130q0 75 70.5 114.5t206.5 39.5h458q137 0 207 -39.5t70 -114.5v-132q0 -54 -17 -87.5t-56 -58.5l-311 -201h384v-186h-1012z" />
    <glyph glyph-name="three" unicode="3" horiz-adv-x="1095" 
d="M1040 168q0 -91 -67 -133t-211 -42h-458q-138 0 -207.5 39.5t-69.5 114.5v141h455v-51q0 -30 12.5 -44t41.5 -14t42 13.5t13 44.5v48q0 58 -76 58h-98v184h91q83 0 83 56q0 22 -16 36.5t-40 14.5q-26 0 -42 -14t-16 -36v-15h-450v96q0 75 70.5 114.5t206.5 39.5h458
q137 0 207.5 -39.5t70.5 -114.5v-68q0 -63 -42.5 -102t-139.5 -63q51 -9 85.5 -23t56 -35.5t31 -53t9.5 -74.5v-78z" />
    <glyph glyph-name="four" unicode="4" horiz-adv-x="1119" 
d="M403 347h136v222zM539 0v161h-528v166l307 485h672v-465h148v-186h-148v-161h-451z" />
    <glyph glyph-name="five" unicode="5" horiz-adv-x="1131" 
d="M515 237q0 -30 13 -44t42 -14t42.5 13.5t13.5 44.5v78q0 31 -13.5 44.5t-42.5 13.5q-21 0 -34 -9.5t-21 -30.5h-455v479h1014v-185h-560v-53l263 -1q148 0 222.5 -46.5t74.5 -140.5v-218q0 -91 -66.5 -133t-210.5 -42h-460q-137 0 -207 39.5t-70 114.5v122h455v-32z" />
    <glyph glyph-name="six" unicode="6" horiz-adv-x="1131" 
d="M512 514q63 1 126 1h129q305 0 305 -187v-161q0 -90 -66.5 -131.5t-210.5 -41.5h-458q-138 0 -207.5 39t-69.5 114v519q0 75 69.5 114t207.5 39h458q137 0 207 -39t70 -114v-105h-451v23q0 22 -15.5 35.5t-41.5 13.5q-29 0 -40.5 -14.5t-11.5 -51.5v-53zM624 231v36
q0 52 -56 52q-29 0 -42 -13t-13 -41v-34q0 -52 55 -52q56 0 56 52z" />
    <glyph glyph-name="seven" unicode="7" horiz-adv-x="862" 
d="M22 0l370 627h-370v185h808v-211l-357 -601h-451z" />
    <glyph glyph-name="eight" unicode="8" horiz-adv-x="1119" 
d="M505 625v-49q0 -31 13 -45.5t42 -14.5t42.5 14t13.5 46v49q0 32 -13.5 46.5t-42.5 14.5t-42 -14t-13 -47zM1061 168q0 -91 -67 -133t-211 -42h-446q-144 0 -210.5 42t-66.5 133v78q0 44 9.5 75t31 53t56 35.5t84.5 22.5q-96 24 -138.5 62.5t-42.5 102.5v68
q0 75 70.5 114.5t206.5 39.5h446q137 0 207.5 -39.5t70.5 -114.5v-68q0 -63 -42.5 -102t-139.5 -63q51 -9 85.5 -23t56 -35.5t31 -53t9.5 -74.5v-78zM507 258v-50q0 -30 13 -44.5t43 -14.5q56 0 56 59v50q0 32 -14 46.5t-42 14.5q-30 0 -43 -14t-13 -47z" />
    <glyph glyph-name="nine" unicode="9" horiz-adv-x="1131" 
d="M620 298h-255q-305 0 -305 187v160q0 91 66.5 132.5t210.5 41.5h458q138 0 207.5 -39.5t69.5 -114.5v-518q0 -75 -69.5 -114.5t-207.5 -39.5h-458q-137 0 -207 39.5t-70 114.5v105h451v-24q0 -22 15.5 -35.5t41.5 -13.5q29 0 40.5 14.5t11.5 51.5v53zM508 581v-35
q0 -53 56 -53q29 0 42 13t13 42v33q0 53 -55 53q-56 0 -56 -53z" />
    <glyph glyph-name="colon" unicode=":" horiz-adv-x="466" 
d="M236 673q-68 0 -118 -50q-49 -49 -49 -119t49 -119t118 -49q70 0 119 49q50 50 50 119q0 70 -49 119q-50 50 -120 50zM236 276q-68 0 -118 -50q-49 -49 -49 -118q0 -70 49 -119t118 -49q70 0 119 49q50 50 50 119t-49 118q-50 50 -120 50z" />
    <glyph glyph-name="semicolon" unicode=";" horiz-adv-x="466" 
d="M236 673q-68 0 -118 -50q-49 -49 -49 -119t49 -119t118 -49q70 0 119 49q50 50 50 119q0 70 -49 119q-50 50 -120 50zM236 276q-68 0 -118 -50q-49 -49 -49 -118q0 -70 49 -119t118 -49q70 0 119 49q50 50 50 119t-49 118q-50 50 -120 50zM185 -114q111 35 166 106
q57 72 17 65q-40 -6 -74 -58q-35 -53 -109 -84v-29z" />
    <glyph glyph-name="semicolon" unicode="&#x37e;" horiz-adv-x="466" 
d="M236 673q-68 0 -118 -50q-49 -49 -49 -119t49 -119t118 -49q70 0 119 49q50 50 50 119q0 70 -49 119q-50 50 -120 50zM236 276q-68 0 -118 -50q-49 -49 -49 -118q0 -70 49 -119t118 -49q70 0 119 49q50 50 50 119t-49 118q-50 50 -120 50zM185 -114q111 35 166 106
q57 72 17 65q-40 -6 -74 -58q-35 -53 -109 -84v-29z" />
    <glyph glyph-name="less" unicode="&#x3c;" horiz-adv-x="1166" 
d="M986 458l-548 -160l548 -160v-146l-805 238v137l805 238v-147z" />
    <glyph glyph-name="equal" unicode="=" horiz-adv-x="1166" 
d="M993 250v-133h-819v133h819zM993 480v-133h-819v133h819z" />
    <glyph glyph-name="greater" unicode="&#x3e;" horiz-adv-x="1166" 
d="M986 367v-137l-805 -238v146l547 160l-547 160v147z" />
    <glyph glyph-name="question" unicode="?" horiz-adv-x="988" 
d="M460 276q-69 0 -119 -50q-49 -49 -49 -118q0 -70 49 -119t119 -49t119 49q50 50 50 119t-49 118q-50 50 -120 50zM940 680v-107q0 -29 -6.5 -47.5t-19.5 -33.5q-20 -21 -93 -54q-17 -8 -27 -12q-66 -33 -86 -53q-19 -19 -19 -48v-26h-445v68q0 38 21.5 64.5t76.5 54.5
q18 10 52 24l47.5 24t30.5 18q13 10 19 20.5t6 30.5q0 26 -14.5 37.5t-44.5 11.5q-59 0 -59 -44v-14h-338v86q0 66 69.5 101t207.5 35h346q135 0 205.5 -35t70.5 -101z" />
    <glyph glyph-name="A" unicode="A" horiz-adv-x="1095" 
d="M500 355h94l-47 276zM0 0l200 812h695l200 -812h-459l-26 176h-127l-25 -176h-458z" />
    <glyph glyph-name="B" unicode="B" horiz-adv-x="1102" 
d="M496 627v-115h49q35 0 49.5 13t14.5 44q0 33 -13.5 45.5t-50.5 12.5h-49zM496 186h49q37 0 50.5 12.5t13.5 45.5v33q0 32 -13.5 45t-50.5 13h-49v-149zM52 0v812h719q78 0 133 -11t89.5 -34t50.5 -60t16 -88q0 -81 -42.5 -124t-142.5 -61q97 -17 141 -69t44 -156
q0 -115 -65 -162t-224 -47h-719z" />
    <glyph glyph-name="C" unicode="C" 
d="M1060 331v-162q0 -47 -15.5 -80t-49.5 -54t-87.5 -31t-129.5 -10h-463q-141 0 -205.5 42t-64.5 133v454q0 53 14.5 90t46.5 60t83.5 33.5t125.5 10.5h463q79 0 134.5 -10.5t85.5 -32.5q62 -44 62 -151v-107h-451v59q0 32 -13.5 45.5t-43.5 13.5t-43 -14t-13 -45v-338
q0 -31 13 -45t43 -14q57 0 57 59v94h451z" />
    <glyph glyph-name="D" unicode="D" 
d="M496 186h49q37 0 50.5 12.5t13.5 45.5v325q0 33 -13.5 45.5t-50.5 12.5h-49v-441zM52 0v812h726q76 0 129.5 -10t87.5 -31t49.5 -54.5t15.5 -79.5v-441q0 -109 -62 -153q-30 -22 -85.5 -32.5t-134.5 -10.5h-726z" />
    <glyph glyph-name="E" unicode="E" horiz-adv-x="1000" 
d="M52 0v812h880v-185h-436v-89h395v-185h-395v-168h436v-185h-880z" />
    <glyph glyph-name="F" unicode="F" horiz-adv-x="975" 
d="M52 0v812h880v-185h-436v-89h395v-185h-395v-168v-185h-444z" />
    <glyph glyph-name="G" unicode="G" horiz-adv-x="1107" 
d="M609 287h-62v181h513l1 -324q6 -150 -197 -150h-308h-241q-74 0 -125.5 10.5t-83.5 34t-46.5 60.5t-14.5 90v455q0 91 64.5 132t205.5 41h463q76 0 129.5 -9.5t87.5 -30.5t49.5 -54t15.5 -79v-82h-452l1 13q0 2 0.5 5.5t0.5 5.5q0 22 -16 35t-42 13q-30 0 -43 -14
t-13 -45v-338q0 -31 13 -44.5t43 -13.5t43.5 13.5t13.5 44.5v50z" />
    <glyph glyph-name="H" unicode="H" 
d="M52 0v812h444v-275h113v275h444v-812h-444v352h-113v-352h-444z" />
    <glyph glyph-name="I" unicode="I" horiz-adv-x="547" 
d="M52 0v812h444v-812h-444z" />
    <glyph glyph-name="J" unicode="J" horiz-adv-x="1085" 
d="M1023 812v-623q0 -109 -61 -152t-220 -43h-437q-74 0 -125.5 10.5t-83.5 34t-46.5 60.5t-14.5 90v153h431v-105q0 -31 13.5 -44.5t42.5 -13.5q31 0 44.5 13.5t13.5 44.5v575h443z" />
    <glyph glyph-name="K" unicode="K" horiz-adv-x="1085" 
d="M55 0v812h435v-328l143 328h452l-171 -377l181 -435h-447l-158 371v-371h-435z" />
    <glyph glyph-name="L" unicode="L" horiz-adv-x="797" 
d="M55 0v812h443v-627h273v-185h-716z" />
    <glyph glyph-name="M" unicode="M" horiz-adv-x="1473" 
d="M612 0l-165 447v-447h-395v812h561l123 -337l122 337h563v-812h-396v447l-164 -447h-249z" />
    <glyph glyph-name="N" unicode="N" horiz-adv-x="1121" 
d="M52 0v812h438l175 -335v335h405v-812h-419l-195 382v-382h-404z" />
    <glyph glyph-name="O" unicode="O" 
d="M496 575v-338q0 -31 13 -44.5t43 -13.5t43.5 13.5t13.5 44.5v338q0 59 -57 59q-30 0 -43 -14t-13 -45zM315 -6q-74 0 -125.5 10.5t-83.5 34t-46.5 60.5t-14.5 90v455q0 91 64.5 132t205.5 41h463q76 0 129.5 -9.5t87.5 -30.5t49.5 -54t15.5 -79v-455q0 -108 -62 -152
q-30 -22 -85.5 -32.5t-134.5 -10.5h-463z" />
    <glyph glyph-name="P" unicode="P" 
d="M556 629h-60v-228h58q33 0 47.5 13t14.5 45v111q0 32 -14 45.5t-46 13.5zM52 0v812h726q76 0 129.5 -10t87.5 -31t49.5 -54.5t15.5 -79.5v-224q0 -110 -63 -153q-61 -43 -219 -43h-282v-217h-444z" />
    <glyph glyph-name="Q" unicode="Q" 
d="M496 575v-338q0 -31 13 -44.5t43 -13.5t43.5 13.5t13.5 44.5v338q0 59 -57 59q-30 0 -43 -14t-13 -45zM315 -6q-74 0 -125.5 10.5t-83.5 34t-46.5 60.5t-14.5 90v455q0 91 64.5 132t205.5 41h463q76 0 129.5 -9.5t87.5 -30.5t49.5 -54t15.5 -79v-455q0 -108 -62 -152
q-30 -22 -85.5 -32.5t-134.5 -10.5h-463zM378 -138v173h348v-173h-348z" />
    <glyph glyph-name="R" unicode="R" horiz-adv-x="1109" 
d="M496 627v-115h49q35 0 49.5 13t14.5 44q0 33 -13.5 45.5t-50.5 12.5h-49zM609 0v277q0 32 -13.5 45t-50.5 13h-49v-335h-444v812h719q77 0 131.5 -11t89 -34t50.5 -60t16 -88q0 -41 -10 -71.5t-32 -53t-57 -37t-84 -23.5q97 -17 141 -69t44 -156v-209h-451z" />
    <glyph glyph-name="S" unicode="S" horiz-adv-x="1099" 
d="M321 -6q-138 0 -208 39t-70 114v147h454v-57q0 -58 55 -58q29 0 42.5 14.5t13.5 48.5q0 19 -2.5 31.5t-10.5 21.5t-23 16t-40 14l-308 89q-107 31 -144 66q-37 37 -37 98v87q0 75 70 113.5t208 38.5h457q138 0 208 -38.5t70 -113.5v-96h-451v10q0 55 -58 55
q-24 0 -38.5 -11t-14.5 -29q0 -9 2.5 -15.5t11 -12.5t24 -12.5t42.5 -14.5l358 -108q34 -11 57.5 -25t38.5 -34t21.5 -48t6.5 -66v-90q0 -91 -66.5 -132.5t-211.5 -41.5h-457z" />
    <glyph glyph-name="T" unicode="T" horiz-adv-x="979" 
d="M267 0v627h-228v185h897v-185h-228v-627h-441z" />
    <glyph glyph-name="U" unicode="U" 
d="M1053 812v-623q0 -108 -62 -152q-30 -22 -85.5 -32.5t-134.5 -10.5h-450q-75 0 -126.5 11t-82.5 33q-60 42 -60 151v623h444v-575q0 -31 13 -44.5t43 -13.5t43.5 13.5t13.5 44.5v575h444z" />
    <glyph glyph-name="V" unicode="V" horiz-adv-x="1085" 
d="M244 0l-244 812h463l80 -516l80 516h463l-243 -812h-599z" />
    <glyph glyph-name="W" unicode="W" horiz-adv-x="1567" 
d="M948 812l88 -372l83 372h448l-233 -812h-455l-96 344l-96 -344h-455l-232 812h448l83 -372l88 372h329z" />
    <glyph glyph-name="X" unicode="X" horiz-adv-x="1053" 
d="M-7 0l175 425l-167 387h448l77 -244l77 244h447l-165 -387l173 -425h-443l-89 300l-88 -300h-445z" />
    <glyph glyph-name="Y" unicode="Y" horiz-adv-x="1077" 
d="M316 0v307l-329 505h433l118 -195l119 195h432l-329 -505v-307h-444z" />
    <glyph glyph-name="Z" unicode="Z" horiz-adv-x="885" 
d="M841 812v-170l-305 -457h305v-185h-799v174l304 453h-277v185h772z" />
    <glyph glyph-name="bracketleft" unicode="[" horiz-adv-x="668" 
d="M64 -194v1032h551v-163h-161v-706h161v-163h-551z" />
    <glyph glyph-name="backslash" unicode="\" horiz-adv-x="787" 
d="M0 812h235l552 -905h-245z" />
    <glyph glyph-name="bracketright" unicode="]" horiz-adv-x="668" 
d="M603 837v-1031h-550v163h161v706h-161v162h550z" />
    <glyph glyph-name="underscore" unicode="_" horiz-adv-x="700" 
d="M700 -98v-138h-700v138h700z" />
    <glyph glyph-name="a" unicode="a" horiz-adv-x="840" 
d="M465 185v99l-45 -15q-32 -11 -44.5 -26t-12.5 -44v-14q0 -51 50 -51q26 0 39 12t13 39zM463 442v27q0 29 -12 40t-38 11t-37.5 -12t-11.5 -39v-21h-321v46q0 41 11.5 69t37.5 45t68 24.5t103 7.5h308q61 0 103 -7.5t68 -25t37.5 -45.5t11.5 -68v-494h-319v40
q-51 -23 -101 -34t-104 -11q-112 0 -170 48t-58 139v26q0 30 7 52t23.5 39t43.5 30t66 25z" />
    <glyph glyph-name="b" unicode="b" horiz-adv-x="846" 
d="M385 168v293q0 48 46 48q24 0 35 -11t11 -37v-293q0 -48 -46 -48t-46 48zM50 142q0 -41 11.5 -68.5t37 -44t67.5 -24t103 -7.5h324q61 0 103 7.5t68 24.5t37.5 44.5t11.5 67.5v345q0 40 -11.5 67.5t-37.5 44.5t-68 24.5t-103 7.5h-324q-61 0 -103 -7.5t-67.5 -24
t-37 -44.5t-11.5 -68v-345zM50 819v-379h331v379h-331z" />
    <glyph glyph-name="c" unicode="c" horiz-adv-x="841" 
d="M802 144q0 -41 -11.5 -68.5t-37.5 -45t-68 -25t-103 -7.5h-324q-61 0 -103 7.5t-67.5 24.5t-37 45t-11.5 69v350q0 81 48 114q25 16 68 24q21 4 68.5 6t122.5 2h236q61 0 103 -7.5t68 -25t37.5 -45.5t11.5 -68v-98h-336v71q0 49 -46 49q-24 0 -35 -11.5t-11 -37.5v-297
q0 -49 46 -49q24 0 35 11.5t11 37.5v103h336v-129z" />
    <glyph glyph-name="d" unicode="d" horiz-adv-x="846" 
d="M467 168v293q0 48 -46 48q-24 0 -35 -11t-11 -37v-293q0 -48 46 -48t46 48zM802 142q0 -41 -11.5 -68.5t-37 -44t-67.5 -24t-103 -7.5h-324q-61 0 -103 7.5t-68 24.5t-37.5 44.5t-11.5 67.5v345q0 40 11.5 67.5t37.5 44.5t68 24.5t103 7.5h324q61 0 103 -7.5t67.5 -24
t37 -44.5t11.5 -68v-345zM801 819v-379h-330v379h330z" />
    <glyph glyph-name="e" unicode="e" horiz-adv-x="841" 
d="M802 144q0 -41 -11.5 -68.5t-37.5 -45t-68 -25t-103 -7.5h-324q-61 0 -103 7.5t-67.5 24.5t-37 45t-11.5 69v350q0 41 11.5 69t37 45t67.5 24.5t103 7.5h324q61 0 103 -7.5t68 -25t37.5 -45.5t11.5 -68v-193h-428v-131q0 -49 46 -49q24 0 35 11.5t11 37.5v82h336v-108z
M371 467v-51h99v51q0 54 -50 54q-26 0 -37.5 -12.5t-11.5 -41.5z" />
    <glyph glyph-name="f" unicode="f" horiz-adv-x="570" 
d="M113 666q0 41 11.5 69t37 45t67.5 24.5t104 7.5h230v-121h-39q-46 0 -63 -8t-17 -27v-18h119v-122h-119v-516h-331v516h-85v122h85v28z" />
    <glyph glyph-name="g" unicode="g" horiz-adv-x="846" 
d="M795 -19q0 -41 -11.5 -69t-37 -45.5t-67 -25t-102.5 -7.5h-501v122h310q46 0 62.5 7.5t16.5 27.5l2 5q-74 -1 -123 -1h-75q-114 0 -172 48t-58 139v274q0 91 58 138.5t169 43.5h529v-657zM465 445q0 26 -11 37.5t-35 11.5q-47 0 -47 -49v-252q0 -26 11 -37.5t37 -11.5
q24 0 34.5 11.5t10.5 37.5v252z" />
    <glyph glyph-name="h" unicode="h" horiz-adv-x="851" 
d="M50 0v812h331v-210q83 40 193 40q114 0 172 -47.5t58 -138.5v-456h-331v445q0 49 -46 49q-24 0 -35 -11.5t-11 -37.5v-445h-331z" />
    <glyph glyph-name="i" unicode="i" horiz-adv-x="434" 
d="M57 0v638h330v-638h-330zM219 1007q-69 0 -119 -50q-48 -50 -48 -118q0 -70 48 -119q49 -49 119 -49t119 49q50 50 50 119t-49 118q-50 50 -120 50z" />
    <glyph glyph-name="j" unicode="j" horiz-adv-x="419" 
d="M46 -159v797h330v-797h-330zM208 1007q-68 0 -118 -50q-49 -49 -49 -118q0 -70 49 -119t118 -49q70 0 119 49q50 50 50 119t-49 118q-50 50 -120 50z" />
    <glyph glyph-name="k" unicode="k" horiz-adv-x="826" 
d="M55 0v812h324v-427l82 253h337l-140 -302l157 -336h-336l-100 298v-298h-324z" />
    <glyph glyph-name="l" unicode="l" horiz-adv-x="434" 
d="M52 0v812h330v-812h-330z" />
    <glyph glyph-name="m" unicode="m" horiz-adv-x="1260" 
d="M50 0v638h317v-40q51 23 100 33.5t104 10.5q116 0 182 -63q51 32 106.5 47.5t127.5 15.5q111 0 169 -47.5t58 -138.5v-456h-328v445q0 49 -46 49q-24 0 -35 -11.5t-11 -37.5v-445h-324v445q0 49 -46 49q-24 0 -35 -11.5t-11 -37.5v-445h-328z" />
    <glyph glyph-name="n" unicode="n" horiz-adv-x="851" 
d="M50 0v638h321v-40q51 23 99.5 33.5t103.5 10.5q114 0 172 -47.5t58 -138.5v-456h-331v445q0 49 -46 49q-24 0 -35 -11.5t-11 -37.5v-445h-331z" />
    <glyph glyph-name="o" unicode="o" horiz-adv-x="841" 
d="M374 467v-297q0 -49 46 -49q24 0 35 11.5t11 37.5v297q0 49 -46 49q-24 0 -35 -11.5t-11 -37.5zM39 494q0 41 11.5 69t37 45t67.5 24.5t103 7.5h324q61 0 103 -7.5t68 -25t37.5 -45.5t11.5 -68v-350q0 -41 -11.5 -68.5t-37.5 -45t-68 -25t-103 -7.5h-324q-61 0 -103 7.5
t-67.5 24.5t-37 45t-11.5 69v350z" />
    <glyph glyph-name="p" unicode="p" horiz-adv-x="846" 
d="M385 467v-297q0 -49 46 -49q24 0 35 11.5t11 37.5v297q0 49 -46 49q-24 0 -35 -11.5t-11 -37.5zM50 494q0 41 11.5 69t37 45t67.5 24.5t103 7.5h324q61 0 103 -7.5t68 -25t37.5 -45.5t11.5 -68v-350q0 -41 -11.5 -68.5t-37.5 -45t-68 -25t-103 -7.5h-324q-61 0 -103 7.5
t-67.5 24.5t-37 45t-11.5 69v350zM50 -193v384h331v-384h-331z" />
    <glyph glyph-name="q" unicode="q" horiz-adv-x="846" 
d="M467 467v-297q0 -49 -46 -49q-24 0 -35 11.5t-11 37.5v297q0 49 46 49q24 0 35 -11.5t11 -37.5zM802 494q0 41 -11.5 69t-37 45t-67.5 24.5t-103 7.5h-324q-61 0 -103 -7.5t-68 -25t-37.5 -45.5t-11.5 -68v-350q0 -41 11.5 -68.5t37.5 -45t68 -25t103 -7.5h324
q61 0 103 7.5t67.5 24.5t37 45t11.5 69v350zM801 -193v384h-330v-384h330z" />
    <glyph glyph-name="r" unicode="r" horiz-adv-x="585" 
d="M50 0v638h321v-40q55 60 178 51v-181q-105 -1 -137 -36q-31 -34 -31 -61v-371h-331z" />
    <glyph glyph-name="s" unicode="s" horiz-adv-x="841" 
d="M802 144q0 -41 -11.5 -68.5t-37.5 -45t-68 -25t-103 -7.5h-324q-61 0 -103 7.5t-67.5 24.5t-37 45t-11.5 69v79h335v-53q0 -49 46 -49q24 0 35 11.5t11 37.5v17q0 43 -77 63l-192 47q-90 23 -121 51t-31 86v60q0 41 11.5 69t37.5 45t68 24.5t103 7.5h317q61 0 103 -7.5
t68 -25t37.5 -45.5t11.5 -68v-43h-332v16q0 49 -46 49q-20 0 -33 -10t-13 -26q0 -10 3 -18t12.5 -15t27.5 -13.5t48 -13.5l144 -36q112 -29 150 -63q39 -33 39 -100v-77z" />
    <glyph glyph-name="t" unicode="t" horiz-adv-x="547" 
d="M99 516h-86v122h86v174h331v-174h94v-122h-94v-516h-331v516z" />
    <glyph glyph-name="u" unicode="u" horiz-adv-x="851" 
d="M801 638v-638h-321v40q-51 -23 -100 -34t-104 -11q-114 0 -172 48t-58 139v456h331v-445q0 -49 46 -49q24 0 35 11.5t11 37.5v445h332z" />
    <glyph glyph-name="v" unicode="v" horiz-adv-x="804" 
d="M629 0h-467l-162 638h332l63 -427l64 427h333z" />
    <glyph glyph-name="w" unicode="w" horiz-adv-x="1154" 
d="M692 638l67 -279l68 279h318l-196 -638h-301l-75 301l-76 -301h-301l-196 638h316l70 -279l66 279h240z" />
    <glyph glyph-name="x" unicode="x" horiz-adv-x="833" 
d="M470 638h332l-109 -302l137 -336h-346l-68 269l-70 -269h-346l137 336l-109 302h332l54 -239z" />
    <glyph glyph-name="y" unicode="y" horiz-adv-x="889" 
d="M826 638v-798h-321v200q-51 -23 -100 -34t-104 -11q-114 0 -172 48t-58 139v456h331v-445q0 -49 46 -49q24 0 35.5 11.5t11.5 37.5v445h331z" />
    <glyph glyph-name="z" unicode="z" horiz-adv-x="690" 
d="M34 0v117l240 390h-217v131h579v-115l-240 -392h256v-131h-618z" />
    <glyph glyph-name="braceleft" unicode="{" horiz-adv-x="700" 
d="M619 582q-5 0 -15 0.5t-15 0.5q-30 0 -49 -3t-30.5 -11.5t-16 -23.5t-4.5 -39v-117q0 -33 -7.5 -55t-25 -37t-46 -23.5t-70.5 -14.5q45 -5 72.5 -14.5t43.5 -23.5q33 -29 33 -91v-118q0 -24 4.5 -38.5t15.5 -23t30.5 -11.5t48.5 -3q5 0 15.5 0.5t15.5 0.5v-139h-55
q-48 0 -83 1t-62 4t-46.5 7t-35.5 10q-40 13 -57 41q-17 29 -17 91v126q0 62 -32 87.5t-108 25.5q-4 0 -11.5 -0.5t-12.5 -0.5v138q5 0 12.5 -0.5t11.5 -0.5q76 0 108 25.5t32 87.5v126q0 33 4 55t13 37t23 24.5t34 16.5q17 6 36.5 10t46 7t61.5 4t83 1h55v-139z" />
    <glyph glyph-name="bar" unicode="|" horiz-adv-x="700" 
d="M447 764v-1000h-192v1000h192z" />
    <glyph glyph-name="braceright" unicode="}" horiz-adv-x="700" 
d="M438 566v-126q0 -31 7.5 -52.5t24 -35t43.5 -19.5t65 -6q5 0 12 0.5t12 0.5v-138q-5 0 -12 0.5t-12 0.5q-38 0 -65 -6t-43.5 -19.5t-24 -35t-7.5 -52.5v-126q0 -62 -16.5 -90.5t-58.5 -42.5q-15 -6 -34.5 -10t-45 -6.5t-59 -3.5t-77.5 -1h-64v138q5 0 14.5 -0.5
t14.5 -0.5q30 0 49.5 3t31 11.5t16 23.5t4.5 39v118q0 64 31 91q30 27 117 38q-42 6 -70.5 14.5t-45.5 23t-24.5 36.5t-7.5 55v118q0 24 -4.5 39t-16 23.5t-31 11.5t-49.5 3q-5 0 -14.5 -0.5t-14.5 -0.5v139h54q48 0 83 -1t61.5 -4t45.5 -7t36 -10q21 -8 35.5 -18t23 -25
t12.5 -37t4 -53z" />
    <glyph glyph-name="asciitilde" unicode="~" horiz-adv-x="1166" 
d="M1046 265q-72 -34 -133 -49.5t-121 -15.5q-18 0 -36.5 1t-39.5 4t-47 8.5t-59 14.5q-43 11 -75.5 17.5t-57.5 9.5q-24 4 -47 5.5t-46 1.5q-58 0 -120.5 -18.5t-141.5 -58.5v146q81 37 147.5 53.5t130.5 16.5q39 0 83.5 -6t107.5 -20l18.5 -4.5t24.5 -6.5
q54 -13 93.5 -19.5t67.5 -6.5q60 0 119.5 18t131.5 55v-146z" />
    <glyph glyph-name="copyright" unicode="&#xa9;" horiz-adv-x="833" 
d="M482 431h118q-4 69 -53.5 108t-136.5 39t-141 -60t-54 -158q0 -100 54 -156.5t150 -56.5q82 0 132.5 43t53.5 116h-121q-4 -70 -62 -70q-80 0 -80 128q0 63 20 98t56 35q28 0 45 -17.5t19 -48.5zM709 363q0 -60 -21 -111.5t-63 -93.5q-43 -42 -96.5 -64.5t-111.5 -22.5
q-120 0 -206 86q-42 42 -64 95t-22 111t22.5 111.5t64.5 96.5q40 42 92.5 63t112.5 21q121 0 207 -86q42 -42 63.5 -95t21.5 -111zM416 729q-75 0 -140.5 -27t-116.5 -78q-54 -54 -81.5 -120.5t-27.5 -141.5q0 -73 27 -139.5t81 -118.5q54 -54 119.5 -81.5t138.5 -27.5
q72 0 140 28t122 82q52 51 79 116.5t27 140.5t-27.5 142t-78.5 118q-52 52 -119 79.5t-143 27.5z" />
    <glyph glyph-name="registered" unicode="&#xae;" horiz-adv-x="833" 
d="M402 491q65 0 65 -46q0 -48 -58 -48h-26v94h19zM421 569h-163v-397h125v152h12l71 -152h136l-87 173q38 13 59 41t21 66q0 57 -44.5 87t-129.5 30zM709 363q0 -60 -21 -111.5t-63 -93.5q-43 -42 -96.5 -64.5t-111.5 -22.5q-120 0 -206 86q-42 42 -64 95t-22 111
t22.5 111.5t64.5 96.5q40 42 92.5 63t112.5 21q121 0 207 -86q42 -42 63.5 -95t21.5 -111zM416 729q-75 0 -140.5 -27t-116.5 -78q-54 -54 -81.5 -120.5t-27.5 -141.5q0 -73 27 -139.5t81 -118.5q54 -54 119.5 -81.5t138.5 -27.5q72 0 140 28t122 82q52 51 79 116.5
t27 140.5t-27.5 142t-78.5 118q-52 52 -119 79.5t-143 27.5z" />
  </font>
</defs>
</svg>
